<svg width="422" height="429" viewBox="0 0 422 429" fill="none" xmlns="http://www.w3.org/2000/svg">
<path d="M208.5 52.2607C59.9999 -114.738 -90 185.262 168 180.261C70 58.2608 279 16.7621 237.5 162.261C252.032 156.5 286.626 140.311 315.5 94.7608C318.609 132.243 297.83 224.305 268 308.761C565 139.762 368 -109.238 208.5 52.2607Z" fill="#11B3CE"/>
<path d="M207.5 375.262C143 269.762 40 277.262 0 135.262C68 232.262 107 238.262 151.5 264.262C130.5 155.762 253 193.262 204.5 273.762C223.5 269.762 239.5 245.762 246 236.762C238.5 302.262 232 318.262 207.5 375.262Z" fill="#92C448"/>
<path d="M37.0578 319.132C34.8344 317.268 33.1688 315.204 32.061 312.939C30.9805 310.642 30.4928 308.368 30.5977 306.117C30.7353 303.894 31.454 301.908 32.7538 300.158L39.6693 305.955C38.923 307.111 38.7034 308.402 39.0106 309.829C39.3506 311.283 40.1908 312.572 41.5314 313.696C42.8393 314.793 44.0722 315.381 45.2301 315.461C46.4207 315.568 47.3587 315.213 48.0439 314.395C48.784 313.512 48.8744 312.475 48.3152 311.282C47.8161 310.084 46.8049 308.402 45.2816 306.234C43.6655 304.044 42.4228 302.139 41.5535 300.52C40.7168 298.927 40.2766 297.194 40.2329 295.32C40.2219 293.474 40.9839 291.635 42.5189 289.804C43.7797 288.3 45.356 287.283 47.2478 286.753C49.1722 286.251 51.237 286.311 53.4422 286.935C55.6801 287.586 57.8944 288.83 60.0852 290.667C63.3222 293.38 65.2201 296.363 65.7787 299.615C66.3648 302.834 65.6047 305.9 63.4985 308.811L56.9262 303.301C57.7327 302.14 57.9876 300.906 57.6909 299.6C57.4544 298.288 56.6658 297.07 55.3252 295.946C54.0827 294.905 52.9262 294.325 51.8558 294.207C50.8182 294.117 49.9567 294.48 49.2714 295.298C48.504 296.213 48.3724 297.3 48.8768 298.558C49.4086 299.783 50.4335 301.45 51.9515 303.557C53.5022 305.692 54.6959 307.556 55.5325 309.148C56.3692 310.74 56.7793 312.476 56.7629 314.355C56.8066 316.229 56.091 318.079 54.6161 319.905C53.3005 321.474 51.6804 322.51 49.756 323.013C47.8643 323.542 45.7995 323.482 43.5616 322.831C41.3838 322.174 39.2159 320.941 37.0578 319.132ZM65.4519 342.935C62.8361 340.742 60.9615 338.196 59.8282 335.298C58.7223 332.366 58.4553 329.331 59.0271 326.191C59.6317 323.079 61.0989 320.133 63.4287 317.354C65.7586 314.575 68.4192 312.63 71.4107 311.518C74.4349 310.435 77.4893 310.211 80.574 310.849C83.6861 311.453 86.55 312.852 89.1659 315.045C91.7817 317.237 93.6589 319.813 94.7975 322.772C95.9634 325.698 96.2605 328.731 95.6887 331.87C95.1495 335.037 93.715 338.01 91.3852 340.79C89.0553 343.569 86.362 345.487 83.3051 346.543C80.281 347.627 77.1965 347.853 74.0517 347.221C70.967 346.584 68.1004 345.155 65.4519 342.935ZM70.4679 336.951C71.7104 337.993 73.1179 338.671 74.6903 338.987C76.3228 339.298 77.9731 339.123 79.6412 338.461C81.3093 337.799 82.8698 336.602 84.3225 334.869C86.4879 332.286 87.4596 329.732 87.2375 327.208C87.0755 324.678 86.0136 322.591 84.0517 320.946C82.0899 319.301 79.8493 318.62 77.3301 318.902C74.871 319.179 72.5587 320.609 70.3933 323.192C68.2279 325.776 67.1935 328.305 67.2901 330.78C67.4468 333.249 68.506 335.306 70.4679 336.951ZM111.347 341.155C113.326 340.587 115.427 340.539 117.649 341.01C119.904 341.508 122.028 342.593 124.023 344.265C126.345 346.211 127.958 348.537 128.862 351.244C129.799 353.978 129.916 356.86 129.214 359.89C128.571 362.915 127.085 365.817 124.755 368.596C122.425 371.375 119.8 373.378 116.879 374.604C114.018 375.825 111.146 376.229 108.263 375.817C105.413 375.431 102.827 374.266 100.505 372.32C98.478 370.62 97.0248 368.734 96.1458 366.661C95.327 364.583 94.9943 362.522 95.1479 360.479L91.8997 364.354L85.0332 358.598L115.458 322.304L122.325 328.06L111.347 341.155ZM117.741 362.717C119.112 361.082 119.947 359.388 120.247 357.635C120.608 355.877 120.492 354.222 119.901 352.669C119.343 351.143 118.426 349.845 117.151 348.776C115.909 347.735 114.457 347.075 112.797 346.797C111.198 346.514 109.547 346.689 107.847 347.323C106.178 347.985 104.659 349.133 103.289 350.768C101.918 352.403 101.053 354.099 100.693 355.857C100.365 357.643 100.467 359.315 100.997 360.873C101.588 362.427 102.505 363.724 103.748 364.765C105.023 365.834 106.474 366.494 108.101 366.745C109.761 367.023 111.425 366.831 113.093 366.169C114.794 365.535 116.344 364.384 117.741 362.717ZM127.979 371.299C130.282 368.552 132.863 366.569 135.724 365.348C138.617 364.154 141.475 363.767 144.299 364.185C147.154 364.63 149.743 365.826 152.065 367.772C154.092 369.471 155.515 371.36 156.334 373.439C157.185 375.544 157.548 377.602 157.422 379.612L160.67 375.737L167.586 381.535L144.808 408.706L137.892 402.909L141.223 398.936C139.271 399.472 137.154 399.506 134.872 399.041C132.65 398.57 130.525 397.485 128.498 395.785C126.209 393.867 124.61 391.524 123.7 388.757C122.823 386.017 122.719 383.119 123.389 380.062C124.119 376.999 125.649 374.078 127.979 371.299ZM149.281 389.323C150.679 387.656 151.544 385.959 151.877 384.234C152.237 382.476 152.122 380.82 151.531 379.267C150.968 377.681 150.048 376.354 148.773 375.285C147.498 374.216 146.06 373.54 144.461 373.256C142.861 372.973 141.21 373.149 139.51 373.783C137.869 374.412 136.363 375.544 134.993 377.178C133.622 378.813 132.743 380.526 132.356 382.317C132.028 384.102 132.13 385.774 132.661 387.333C133.224 388.919 134.127 390.232 135.37 391.274C136.645 392.343 138.099 393.033 139.731 393.343C141.391 393.621 143.041 393.446 144.682 392.817C146.35 392.155 147.883 390.991 149.281 389.323ZM177.558 399.499L166.539 412.643C165.772 413.559 165.423 414.407 165.491 415.188C165.62 415.965 166.208 416.791 167.254 417.668L170.442 420.341L165.591 426.128L161.274 422.51C155.487 417.659 154.95 412.421 159.665 406.797L170.643 393.701L167.406 390.988L172.134 385.347L175.371 388.061L181.004 381.342L187.919 387.139L182.286 393.858L188.368 398.956L183.64 404.597L177.558 399.499Z" fill="#11B3CE"/>
<path d="M262.743 423.622C260.521 425.487 258.198 426.768 255.775 427.465C253.324 428.129 251 428.213 248.802 427.718C246.637 427.195 244.806 426.142 243.31 424.557L250.222 418.756C251.231 419.693 252.464 420.134 253.922 420.08C255.414 419.998 256.829 419.395 258.169 418.271C259.477 417.174 260.27 416.062 260.551 414.936C260.864 413.782 260.677 412.796 259.992 411.979C259.251 411.097 258.245 410.827 256.973 411.17C255.707 411.453 253.874 412.156 251.474 413.278C249.036 414.488 246.944 415.381 245.198 415.955C243.484 416.501 241.701 416.633 239.848 416.35C238.028 416.039 236.35 414.969 234.814 413.138C233.553 411.635 232.826 409.905 232.633 407.95C232.474 405.968 232.893 403.945 233.891 401.882C234.922 399.792 236.532 397.828 238.722 395.99C241.958 393.275 245.226 391.926 248.525 391.942C251.797 391.925 254.684 393.208 257.183 395.788L250.614 401.301C249.611 400.305 248.44 399.839 247.102 399.904C245.769 399.908 244.432 400.473 243.092 401.597C241.85 402.639 241.078 403.677 240.776 404.711C240.506 405.717 240.714 406.628 241.4 407.445C242.167 408.361 243.215 408.679 244.541 408.402C245.84 408.091 247.66 407.372 250 406.244C252.372 405.089 254.415 404.238 256.129 403.691C257.842 403.145 259.623 403.043 261.47 403.387C263.323 403.67 265.02 404.697 266.561 406.467C267.878 408.036 268.616 409.811 268.775 411.794C268.968 413.749 268.549 415.772 267.518 417.862C266.492 419.892 264.901 421.812 262.743 423.622ZM292.055 374.13C292.878 375.111 293.553 376.048 294.081 376.942L274.225 393.603C276.034 395.427 278.009 396.388 280.151 396.484C282.293 396.581 284.246 395.888 286.011 394.407C288.56 392.268 289.456 389.651 288.697 386.556L296.1 380.344C297.509 383.617 297.816 387.036 297.02 390.601C296.196 394.132 294.166 397.256 290.93 399.971C288.315 402.165 285.482 403.568 282.43 404.179C279.384 404.73 276.381 404.437 273.422 403.3C270.495 402.135 267.866 400.164 265.535 397.386C263.176 394.575 261.678 391.627 261.039 388.543C260.4 385.459 260.631 382.48 261.73 379.609C262.829 376.737 264.719 374.177 267.399 371.928C269.981 369.761 272.751 368.383 275.71 367.794C278.702 367.178 281.617 367.433 284.456 368.559C287.301 369.626 289.834 371.483 292.055 374.13ZM283.301 378.134C281.787 376.397 279.97 375.526 277.851 375.522C275.704 375.486 273.731 376.222 271.934 377.73C270.234 379.156 269.235 380.886 268.936 382.919C268.642 384.892 269.132 386.904 270.407 388.954L283.301 378.134ZM301.131 343.707C303.19 341.979 305.404 340.901 307.774 340.472C310.116 340.011 312.468 340.292 314.832 341.317C317.201 342.281 319.413 343.989 321.47 346.44L334.84 362.374L327.977 368.133L315.388 353.131C313.578 350.974 311.654 349.776 309.615 349.537C307.549 349.265 305.585 349.911 303.722 351.475C301.826 353.065 300.816 354.915 300.692 357.024C300.574 359.073 301.419 361.176 303.23 363.334L315.818 378.336L308.954 384.095L278.512 347.815L285.375 342.056L295.866 354.558C295.761 352.641 296.17 350.738 297.092 348.85C297.987 346.93 299.333 345.215 301.131 343.707ZM328.125 344.7C325.821 341.954 324.317 339.067 323.613 336.037C322.942 332.98 323.058 330.098 323.961 327.391C324.896 324.656 326.525 322.315 328.845 320.368C330.872 318.668 332.979 317.595 335.169 317.151C337.39 316.679 339.48 316.68 341.437 317.154L338.187 313.281L345.1 307.48L367.891 334.641L360.978 340.442L357.646 336.471C357.833 338.486 357.499 340.577 356.643 342.743C355.792 344.849 354.354 346.752 352.327 348.453C350.039 350.372 347.454 351.539 344.571 351.953C341.721 352.34 338.848 351.937 335.955 350.745C333.066 349.493 330.456 347.478 328.125 344.7ZM349.583 326.861C348.184 325.194 346.664 324.047 345.023 323.419C343.355 322.758 341.704 322.583 340.072 322.895C338.412 323.174 336.945 323.848 335.67 324.917C334.396 325.987 333.479 327.285 332.922 328.811C332.364 330.337 332.25 331.993 332.578 333.778C332.912 335.503 333.764 337.183 335.136 338.817C336.507 340.451 338.04 341.615 339.736 342.308C341.437 342.942 343.102 343.133 344.729 342.882C346.388 342.603 347.839 341.942 349.081 340.9C350.356 339.831 351.289 338.519 351.879 336.966C352.441 335.379 352.556 333.724 352.222 331.999C351.861 330.241 350.981 328.528 349.583 326.861ZM364.526 300.788L375.551 313.927C376.319 314.842 377.094 315.334 377.875 315.402C378.662 315.411 379.578 314.976 380.624 314.098L383.811 311.424L388.665 317.21L384.351 320.83C378.566 325.684 373.315 325.3 368.597 319.679L357.613 306.588L354.378 309.304L349.647 303.665L352.882 300.95L347.246 294.234L354.159 288.433L359.795 295.15L365.875 290.049L370.605 295.687L364.526 300.788Z" fill="#92C448"/>
</svg>
