<svg width="1018" height="429" viewBox="0 0 1018 429" fill="none" xmlns="http://www.w3.org/2000/svg">
<path d="M484.744 215.05C477.444 215.05 470.844 213.8 464.944 211.3C459.144 208.8 454.544 205.2 451.144 200.5C447.744 195.8 445.994 190.25 445.894 183.85H468.394C468.694 188.15 470.194 191.55 472.894 194.05C475.694 196.55 479.494 197.8 484.294 197.8C489.194 197.8 493.044 196.65 495.844 194.35C498.644 191.95 500.044 188.85 500.044 185.05C500.044 181.95 499.094 179.4 497.194 177.4C495.294 175.4 492.894 173.85 489.994 172.75C487.194 171.55 483.294 170.25 478.294 168.85C471.494 166.85 465.944 164.9 461.644 163C457.444 161 453.794 158.05 450.694 154.15C447.694 150.15 446.194 144.85 446.194 138.25C446.194 132.05 447.744 126.65 450.844 122.05C453.944 117.45 458.294 113.95 463.894 111.55C469.494 109.05 475.894 107.8 483.094 107.8C493.894 107.8 502.644 110.45 509.344 115.75C516.144 120.95 519.894 128.25 520.594 137.65H497.494C497.294 134.05 495.744 131.1 492.844 128.8C490.044 126.4 486.294 125.2 481.594 125.2C477.494 125.2 474.194 126.25 471.694 128.35C469.294 130.45 468.094 133.5 468.094 137.5C468.094 140.3 468.994 142.65 470.794 144.55C472.694 146.35 474.994 147.85 477.694 149.05C480.494 150.15 484.394 151.45 489.394 152.95C496.194 154.95 501.744 156.95 506.044 158.95C510.344 160.95 514.044 163.95 517.144 167.95C520.244 171.95 521.794 177.2 521.794 183.7C521.794 189.3 520.344 194.5 517.444 199.3C514.544 204.1 510.294 207.95 504.694 210.85C499.094 213.65 492.444 215.05 484.744 215.05ZM588.6 215.05C578.8 215.05 569.8 212.75 561.6 208.15C553.4 203.55 546.9 197.2 542.1 189.1C537.3 180.9 534.9 171.65 534.9 161.35C534.9 151.15 537.3 142 542.1 133.9C546.9 125.7 553.4 119.3 561.6 114.7C569.8 110.1 578.8 107.8 588.6 107.8C598.5 107.8 607.5 110.1 615.6 114.7C623.8 119.3 630.25 125.7 634.95 133.9C639.75 142 642.15 151.15 642.15 161.35C642.15 171.65 639.75 180.9 634.95 189.1C630.25 197.2 623.8 203.55 615.6 208.15C607.4 212.75 598.4 215.05 588.6 215.05ZM588.6 196.3C594.9 196.3 600.45 194.9 605.25 192.1C610.05 189.2 613.8 185.1 616.5 179.8C619.2 174.5 620.55 168.35 620.55 161.35C620.55 154.35 619.2 148.25 616.5 143.05C613.8 137.75 610.05 133.7 605.25 130.9C600.45 128.1 594.9 126.7 588.6 126.7C582.3 126.7 576.7 128.1 571.8 130.9C567 133.7 563.25 137.75 560.55 143.05C557.85 148.25 556.5 154.35 556.5 161.35C556.5 168.35 557.85 174.5 560.55 179.8C563.25 185.1 567 189.2 571.8 192.1C576.7 194.9 582.3 196.3 588.6 196.3ZM717.174 160.3C723.074 161.4 727.924 164.35 731.724 169.15C735.524 173.95 737.424 179.45 737.424 185.65C737.424 191.25 736.024 196.2 733.224 200.5C730.524 204.7 726.574 208 721.374 210.4C716.174 212.8 710.024 214 702.924 214H657.774V109.3H700.974C708.074 109.3 714.174 110.45 719.274 112.75C724.474 115.05 728.374 118.25 730.974 122.35C733.674 126.45 735.024 131.1 735.024 136.3C735.024 142.4 733.374 147.5 730.074 151.6C726.874 155.7 722.574 158.6 717.174 160.3ZM678.774 152.5H697.974C702.974 152.5 706.824 151.4 709.524 149.2C712.224 146.9 713.574 143.65 713.574 139.45C713.574 135.25 712.224 132 709.524 129.7C706.824 127.4 702.974 126.25 697.974 126.25H678.774V152.5ZM699.924 196.9C705.024 196.9 708.974 195.7 711.774 193.3C714.674 190.9 716.124 187.5 716.124 183.1C716.124 178.6 714.624 175.1 711.624 172.6C708.624 170 704.574 168.7 699.474 168.7H678.774V196.9H699.924ZM818.361 194.05H776.661L769.761 214H747.711L785.361 109.15H809.811L847.461 214H825.261L818.361 194.05ZM812.661 177.25L797.511 133.45L782.361 177.25H812.661ZM932.784 109.3V126.25H904.884V214H883.884V126.25H855.984V109.3H932.784Z" fill="#2BA6CC"/>
<path d="M619.804 323.98C612.991 323.98 606.831 322.813 601.324 320.48C595.911 318.147 591.618 314.787 588.444 310.4C585.271 306.013 583.638 300.833 583.544 294.86H604.544C604.824 298.873 606.224 302.047 608.744 304.38C611.358 306.713 614.904 307.88 619.384 307.88C623.958 307.88 627.551 306.807 630.164 304.66C632.778 302.42 634.084 299.527 634.084 295.98C634.084 293.087 633.198 290.707 631.424 288.84C629.651 286.973 627.411 285.527 624.704 284.5C622.091 283.38 618.451 282.167 613.784 280.86C607.438 278.993 602.258 277.173 598.244 275.4C594.324 273.533 590.918 270.78 588.024 267.14C585.224 263.407 583.824 258.46 583.824 252.3C583.824 246.513 585.271 241.473 588.164 237.18C591.058 232.887 595.118 229.62 600.344 227.38C605.571 225.047 611.544 223.88 618.264 223.88C628.344 223.88 636.511 226.353 642.764 231.3C649.111 236.153 652.611 242.967 653.264 251.74H631.704C631.518 248.38 630.071 245.627 627.364 243.48C624.751 241.24 621.251 240.12 616.864 240.12C613.038 240.12 609.958 241.1 607.624 243.06C605.384 245.02 604.264 247.867 604.264 251.6C604.264 254.213 605.104 256.407 606.784 258.18C608.558 259.86 610.704 261.26 613.224 262.38C615.838 263.407 619.478 264.62 624.144 266.02C630.491 267.887 635.671 269.753 639.684 271.62C643.698 273.487 647.151 276.287 650.044 280.02C652.938 283.753 654.384 288.653 654.384 294.72C654.384 299.947 653.031 304.8 650.324 309.28C647.618 313.76 643.651 317.353 638.424 320.06C633.198 322.673 626.991 323.98 619.804 323.98ZM690.977 241.1V265.6H723.877V281.14H690.977V307.04H728.077V323H671.377V225.14H728.077V241.1H690.977ZM826.949 225.28V323H807.349V281.42H765.489V323H745.889V225.28H765.489V265.46H807.349V225.28H826.949ZM906.16 304.38H867.24L860.8 323H840.22L875.36 225.14H898.18L933.32 323H912.6L906.16 304.38ZM900.84 288.7L886.7 247.82L872.56 288.7H900.84ZM1012.95 225.28V241.1H986.915V323H967.315V241.1H941.275V225.28H1012.95Z" fill="#11B621"/>
<path d="M208.5 52.2607C59.9999 -114.738 -90 185.262 168 180.261C70 58.2608 279 16.7621 237.5 162.261C252.032 156.5 286.626 140.311 315.5 94.7608C318.609 132.243 297.83 224.305 268 308.761C565 139.762 368 -109.238 208.5 52.2607Z" fill="#11B3CE"/>
<path d="M207.5 375.262C143 269.762 40 277.262 0 135.262C68 232.262 107 238.262 151.5 264.262C130.5 155.762 253 193.262 204.5 273.762C223.5 269.762 239.5 245.762 246 236.762C238.5 302.262 232 318.262 207.5 375.262Z" fill="#92C448"/>
</svg>
